<mxfile host="app.diagrams.net" modified="2020-04-23T10:57:17.460Z" agent="5.0 (X11)" etag="V_4147R--KSn1_29oITO" version="13.0.1" type="github">
  <diagram id="C5RBs43oDa-KdzZeNtuy" name="Page-1">
    <mxGraphModel dx="1585" dy="1047" grid="1" gridSize="10" guides="1" tooltips="1" connect="1" arrows="1" fold="1" page="0" pageScale="1" pageWidth="827" pageHeight="1169" math="0" shadow="0">
      <root>
        <mxCell id="WIyWlLk6GJQsqaUBKTNV-0" />
        <mxCell id="WIyWlLk6GJQsqaUBKTNV-1" parent="WIyWlLk6GJQsqaUBKTNV-0" />
        <mxCell id="zkfFHV4jXpPFQw0GAbJ--0" value="Компания [company]" style="swimlane;fontStyle=0;align=center;verticalAlign=top;childLayout=stackLayout;horizontal=1;startSize=26;horizontalStack=0;resizeParent=1;resizeLast=0;collapsible=1;marginBottom=0;rounded=0;shadow=0;strokeWidth=1;" parent="WIyWlLk6GJQsqaUBKTNV-1" vertex="1">
          <mxGeometry x="-200" width="240" height="280" as="geometry">
            <mxRectangle x="230" y="140" width="160" height="26" as="alternateBounds" />
          </mxGeometry>
        </mxCell>
        <mxCell id="zkfFHV4jXpPFQw0GAbJ--1" value="Название компании [company_name]" style="text;align=left;verticalAlign=top;spacingLeft=4;spacingRight=4;overflow=hidden;rotatable=0;points=[[0,0.5],[1,0.5]];portConstraint=eastwest;" parent="zkfFHV4jXpPFQw0GAbJ--0" vertex="1">
          <mxGeometry y="26" width="240" height="26" as="geometry" />
        </mxCell>
        <mxCell id="zkfFHV4jXpPFQw0GAbJ--2" value="Номер телефона [company_phone]" style="text;align=left;verticalAlign=top;spacingLeft=4;spacingRight=4;overflow=hidden;rotatable=0;points=[[0,0.5],[1,0.5]];portConstraint=eastwest;rounded=0;shadow=0;html=0;" parent="zkfFHV4jXpPFQw0GAbJ--0" vertex="1">
          <mxGeometry y="52" width="240" height="26" as="geometry" />
        </mxCell>
        <mxCell id="zkfFHV4jXpPFQw0GAbJ--3" value="Адрес почты [company_email]" style="text;align=left;verticalAlign=top;spacingLeft=4;spacingRight=4;overflow=hidden;rotatable=0;points=[[0,0.5],[1,0.5]];portConstraint=eastwest;rounded=0;shadow=0;html=0;" parent="zkfFHV4jXpPFQw0GAbJ--0" vertex="1">
          <mxGeometry y="78" width="240" height="26" as="geometry" />
        </mxCell>
        <mxCell id="zkfFHV4jXpPFQw0GAbJ--5" value="Вид деятельности [company_branch]" style="text;align=left;verticalAlign=top;spacingLeft=4;spacingRight=4;overflow=hidden;rotatable=0;points=[[0,0.5],[1,0.5]];portConstraint=eastwest;" parent="zkfFHV4jXpPFQw0GAbJ--0" vertex="1">
          <mxGeometry y="104" width="240" height="26" as="geometry" />
        </mxCell>
        <mxCell id="ekAMWvGIrZKWJ5HijZO_-17" value="Страна" style="text;align=left;verticalAlign=top;spacingLeft=4;spacingRight=4;overflow=hidden;rotatable=0;points=[[0,0.5],[1,0.5]];portConstraint=eastwest;" parent="zkfFHV4jXpPFQw0GAbJ--0" vertex="1">
          <mxGeometry y="130" width="240" height="29" as="geometry" />
        </mxCell>
        <mxCell id="ekAMWvGIrZKWJ5HijZO_-18" value="Город" style="text;align=left;verticalAlign=top;spacingLeft=4;spacingRight=4;overflow=hidden;rotatable=0;points=[[0,0.5],[1,0.5]];portConstraint=eastwest;" parent="zkfFHV4jXpPFQw0GAbJ--0" vertex="1">
          <mxGeometry y="159" width="240" height="30" as="geometry" />
        </mxCell>
        <mxCell id="ekAMWvGIrZKWJ5HijZO_-20" value="Метро" style="text;align=left;verticalAlign=top;spacingLeft=4;spacingRight=4;overflow=hidden;rotatable=0;points=[[0,0.5],[1,0.5]];portConstraint=eastwest;" parent="zkfFHV4jXpPFQw0GAbJ--0" vertex="1">
          <mxGeometry y="189" width="240" height="30" as="geometry" />
        </mxCell>
        <mxCell id="zkfFHV4jXpPFQw0GAbJ--13" value="Вид деятельности [company_branch]" style="swimlane;fontStyle=0;align=center;verticalAlign=top;childLayout=stackLayout;horizontal=1;startSize=26;horizontalStack=0;resizeParent=1;resizeLast=0;collapsible=1;marginBottom=0;rounded=0;shadow=0;strokeWidth=1;" parent="WIyWlLk6GJQsqaUBKTNV-1" vertex="1">
          <mxGeometry x="80" width="240" height="280" as="geometry">
            <mxRectangle x="340" y="380" width="170" height="26" as="alternateBounds" />
          </mxGeometry>
        </mxCell>
        <mxCell id="ekAMWvGIrZKWJ5HijZO_-4" value="Направление деятельности [industry]" style="text;align=left;verticalAlign=top;spacingLeft=4;spacingRight=4;overflow=hidden;rotatable=0;points=[[0,0.5],[1,0.5]];portConstraint=eastwest;" parent="zkfFHV4jXpPFQw0GAbJ--13" vertex="1">
          <mxGeometry y="26" width="240" height="26" as="geometry" />
        </mxCell>
        <mxCell id="ekAMWvGIrZKWJ5HijZO_-3" value="Перечень услуг [industry]" style="text;align=left;verticalAlign=top;spacingLeft=4;spacingRight=4;overflow=hidden;rotatable=0;points=[[0,0.5],[1,0.5]];portConstraint=eastwest;" parent="zkfFHV4jXpPFQw0GAbJ--13" vertex="1">
          <mxGeometry y="52" width="240" height="26" as="geometry" />
        </mxCell>
        <mxCell id="zkfFHV4jXpPFQw0GAbJ--17" value="Address" style="swimlane;fontStyle=0;align=center;verticalAlign=top;childLayout=stackLayout;horizontal=1;startSize=26;horizontalStack=0;resizeParent=1;resizeLast=0;collapsible=1;marginBottom=0;rounded=0;shadow=0;strokeWidth=1;" parent="WIyWlLk6GJQsqaUBKTNV-1" vertex="1">
          <mxGeometry x="980" y="560" width="240" height="280" as="geometry">
            <mxRectangle x="550" y="140" width="160" height="26" as="alternateBounds" />
          </mxGeometry>
        </mxCell>
        <mxCell id="zkfFHV4jXpPFQw0GAbJ--18" value="Street" style="text;align=left;verticalAlign=top;spacingLeft=4;spacingRight=4;overflow=hidden;rotatable=0;points=[[0,0.5],[1,0.5]];portConstraint=eastwest;" parent="zkfFHV4jXpPFQw0GAbJ--17" vertex="1">
          <mxGeometry y="26" width="240" height="26" as="geometry" />
        </mxCell>
        <mxCell id="zkfFHV4jXpPFQw0GAbJ--19" value="City" style="text;align=left;verticalAlign=top;spacingLeft=4;spacingRight=4;overflow=hidden;rotatable=0;points=[[0,0.5],[1,0.5]];portConstraint=eastwest;rounded=0;shadow=0;html=0;" parent="zkfFHV4jXpPFQw0GAbJ--17" vertex="1">
          <mxGeometry y="52" width="240" height="26" as="geometry" />
        </mxCell>
        <mxCell id="zkfFHV4jXpPFQw0GAbJ--20" value="State" style="text;align=left;verticalAlign=top;spacingLeft=4;spacingRight=4;overflow=hidden;rotatable=0;points=[[0,0.5],[1,0.5]];portConstraint=eastwest;rounded=0;shadow=0;html=0;" parent="zkfFHV4jXpPFQw0GAbJ--17" vertex="1">
          <mxGeometry y="78" width="240" height="26" as="geometry" />
        </mxCell>
        <mxCell id="zkfFHV4jXpPFQw0GAbJ--21" value="Postal Code" style="text;align=left;verticalAlign=top;spacingLeft=4;spacingRight=4;overflow=hidden;rotatable=0;points=[[0,0.5],[1,0.5]];portConstraint=eastwest;rounded=0;shadow=0;html=0;" parent="zkfFHV4jXpPFQw0GAbJ--17" vertex="1">
          <mxGeometry y="104" width="240" height="26" as="geometry" />
        </mxCell>
        <mxCell id="zkfFHV4jXpPFQw0GAbJ--22" value="Country" style="text;align=left;verticalAlign=top;spacingLeft=4;spacingRight=4;overflow=hidden;rotatable=0;points=[[0,0.5],[1,0.5]];portConstraint=eastwest;rounded=0;shadow=0;html=0;" parent="zkfFHV4jXpPFQw0GAbJ--17" vertex="1">
          <mxGeometry y="130" width="240" height="26" as="geometry" />
        </mxCell>
        <mxCell id="zkfFHV4jXpPFQw0GAbJ--25" value="Output As Label" style="text;align=left;verticalAlign=top;spacingLeft=4;spacingRight=4;overflow=hidden;rotatable=0;points=[[0,0.5],[1,0.5]];portConstraint=eastwest;" parent="zkfFHV4jXpPFQw0GAbJ--17" vertex="1">
          <mxGeometry y="156" width="240" height="26" as="geometry" />
        </mxCell>
        <mxCell id="ekAMWvGIrZKWJ5HijZO_-5" value="&lt;h1&gt;Компания&lt;/h1&gt;&lt;p&gt;Пример: Компания занимается наружной рекламой, изготавливает вывески (вывески, лайтбоксы, объемные буквы).&lt;/p&gt;&lt;p&gt;Таблица для создания карточки компании, заведение информации о компании в БД. Основная контактная информация.&lt;br&gt;&lt;/p&gt;" style="text;html=1;strokeColor=none;fillColor=none;spacing=5;spacingTop=-20;whiteSpace=wrap;overflow=hidden;rounded=0;" parent="WIyWlLk6GJQsqaUBKTNV-1" vertex="1">
          <mxGeometry x="-200" y="-200" width="240" height="170" as="geometry" />
        </mxCell>
        <mxCell id="ekAMWvGIrZKWJ5HijZO_-6" value="&lt;h1&gt;Вид деятельности&lt;br&gt;&lt;/h1&gt;&lt;p&gt;Пример: Каждая компания отностится к какому-то виду деятельности, направлению, отрасли.&lt;br&gt;&lt;br&gt;Производство -&amp;gt; Рекламные услуги -&amp;gt; Наружная реклама -&amp;gt; Вывески&lt;br&gt;&lt;br&gt;Реестр направлений и перечня услуг.&lt;br&gt;&lt;/p&gt;" style="text;html=1;strokeColor=none;fillColor=none;spacing=5;spacingTop=-20;whiteSpace=wrap;overflow=hidden;rounded=0;" parent="WIyWlLk6GJQsqaUBKTNV-1" vertex="1">
          <mxGeometry x="80" y="-200" width="240" height="170" as="geometry" />
        </mxCell>
        <mxCell id="ekAMWvGIrZKWJ5HijZO_-8" value="&lt;h1&gt;d&lt;br&gt;&lt;/h1&gt;&lt;p&gt;Пример: Каждая компания отностится к какому-то виду деятельности, направлению, отрасли.&lt;br&gt;&lt;br&gt;Производство -&amp;gt; Рекламные услуги -&amp;gt; Наружная реклама -&amp;gt; Вывески&lt;br&gt;&lt;br&gt;Реестр направлений и перечня услуг.&lt;br&gt;&lt;/p&gt;" style="text;html=1;strokeColor=none;fillColor=none;spacing=5;spacingTop=-20;whiteSpace=wrap;overflow=hidden;rounded=0;" parent="WIyWlLk6GJQsqaUBKTNV-1" vertex="1">
          <mxGeometry x="980" y="360" width="240" height="170" as="geometry" />
        </mxCell>
        <mxCell id="ekAMWvGIrZKWJ5HijZO_-9" value="Сортировка" style="swimlane;fontStyle=0;align=center;verticalAlign=top;childLayout=stackLayout;horizontal=1;startSize=26;horizontalStack=0;resizeParent=1;resizeLast=0;collapsible=1;marginBottom=0;rounded=0;shadow=0;strokeWidth=1;" parent="WIyWlLk6GJQsqaUBKTNV-1" vertex="1">
          <mxGeometry x="640" width="240" height="240" as="geometry">
            <mxRectangle x="550" y="140" width="160" height="26" as="alternateBounds" />
          </mxGeometry>
        </mxCell>
        <mxCell id="ekAMWvGIrZKWJ5HijZO_-10" value="По услугам" style="text;align=left;verticalAlign=top;spacingLeft=4;spacingRight=4;overflow=hidden;rotatable=0;points=[[0,0.5],[1,0.5]];portConstraint=eastwest;" parent="ekAMWvGIrZKWJ5HijZO_-9" vertex="1">
          <mxGeometry y="26" width="240" height="26" as="geometry" />
        </mxCell>
        <mxCell id="ekAMWvGIrZKWJ5HijZO_-11" value="По отрасли" style="text;align=left;verticalAlign=top;spacingLeft=4;spacingRight=4;overflow=hidden;rotatable=0;points=[[0,0.5],[1,0.5]];portConstraint=eastwest;rounded=0;shadow=0;html=0;" parent="ekAMWvGIrZKWJ5HijZO_-9" vertex="1">
          <mxGeometry y="52" width="240" height="26" as="geometry" />
        </mxCell>
        <mxCell id="ekAMWvGIrZKWJ5HijZO_-12" value="По городу" style="text;align=left;verticalAlign=top;spacingLeft=4;spacingRight=4;overflow=hidden;rotatable=0;points=[[0,0.5],[1,0.5]];portConstraint=eastwest;rounded=0;shadow=0;html=0;" parent="ekAMWvGIrZKWJ5HijZO_-9" vertex="1">
          <mxGeometry y="78" width="240" height="26" as="geometry" />
        </mxCell>
        <mxCell id="ekAMWvGIrZKWJ5HijZO_-16" value="&lt;h1&gt;Сортировка по услугам&lt;br&gt;&lt;/h1&gt;&lt;p&gt;Пример: Увидеть все компании, которые занимаются рекламными услугами или изготавливают вывески.&lt;br&gt;&lt;/p&gt;" style="text;html=1;strokeColor=none;fillColor=none;spacing=5;spacingTop=-20;whiteSpace=wrap;overflow=hidden;rounded=0;" parent="WIyWlLk6GJQsqaUBKTNV-1" vertex="1">
          <mxGeometry x="640" y="-200" width="240" height="140" as="geometry" />
        </mxCell>
        <mxCell id="ekAMWvGIrZKWJ5HijZO_-19" value="&lt;h1&gt;Шаблон данных&lt;br&gt;&lt;/h1&gt;&lt;div&gt;Бренд: МосВывеска&lt;br&gt;&lt;br&gt;Адрес сайта: domain.ru&lt;/div&gt;&lt;div&gt;&lt;br&gt;&lt;/div&gt;&lt;div&gt;Контакты:&lt;/div&gt;&lt;div&gt;+7 (495) 123-45-67&lt;br&gt;info@domain.ru&lt;br&gt;&lt;br&gt;Адрес: 105118, г. Москва, проезд Завода Серп и Молот, 1с1&lt;/div&gt;&lt;div&gt;&lt;br&gt;&lt;/div&gt;&lt;div&gt;Метро: Китай-город&lt;br&gt;&lt;/div&gt;" style="text;html=1;strokeColor=none;fillColor=none;spacing=5;spacingTop=-20;whiteSpace=wrap;overflow=hidden;rounded=0;" parent="WIyWlLk6GJQsqaUBKTNV-1" vertex="1">
          <mxGeometry x="-200" y="320" width="240" height="240" as="geometry" />
        </mxCell>
        <mxCell id="ekAMWvGIrZKWJ5HijZO_-21" value="Пользователь" style="swimlane;fontStyle=0;align=center;verticalAlign=top;childLayout=stackLayout;horizontal=1;startSize=26;horizontalStack=0;resizeParent=1;resizeLast=0;collapsible=1;marginBottom=0;rounded=0;shadow=0;strokeWidth=1;" parent="WIyWlLk6GJQsqaUBKTNV-1" vertex="1">
          <mxGeometry x="360" width="240" height="240" as="geometry">
            <mxRectangle x="340" y="380" width="170" height="26" as="alternateBounds" />
          </mxGeometry>
        </mxCell>
        <mxCell id="ekAMWvGIrZKWJ5HijZO_-22" value="ID пользователя" style="text;align=left;verticalAlign=top;spacingLeft=4;spacingRight=4;overflow=hidden;rotatable=0;points=[[0,0.5],[1,0.5]];portConstraint=eastwest;" parent="ekAMWvGIrZKWJ5HijZO_-21" vertex="1">
          <mxGeometry y="26" width="240" height="26" as="geometry" />
        </mxCell>
        <mxCell id="ekAMWvGIrZKWJ5HijZO_-23" value="ФИО пользователя" style="text;align=left;verticalAlign=top;spacingLeft=4;spacingRight=4;overflow=hidden;rotatable=0;points=[[0,0.5],[1,0.5]];portConstraint=eastwest;" parent="ekAMWvGIrZKWJ5HijZO_-21" vertex="1">
          <mxGeometry y="52" width="240" height="26" as="geometry" />
        </mxCell>
        <mxCell id="ekAMWvGIrZKWJ5HijZO_-24" value="Статус / роль" style="text;align=left;verticalAlign=top;spacingLeft=4;spacingRight=4;overflow=hidden;rotatable=0;points=[[0,0.5],[1,0.5]];portConstraint=eastwest;" parent="ekAMWvGIrZKWJ5HijZO_-21" vertex="1">
          <mxGeometry y="78" width="240" height="26" as="geometry" />
        </mxCell>
        <mxCell id="ekAMWvGIrZKWJ5HijZO_-25" value="&lt;h1&gt;Пользователь&lt;br&gt;&lt;/h1&gt;&lt;p&gt;Пример: пользователь, который может зарегистрироваться, добавить карточку компании, отправлять заявки и отвечать на заявки, пользоваться услугами сервиса.&lt;br&gt;Администратор/модератор, менеджер/сотрудник.&lt;br&gt;&lt;/p&gt;" style="text;html=1;strokeColor=none;fillColor=none;spacing=5;spacingTop=-20;whiteSpace=wrap;overflow=hidden;rounded=0;" parent="WIyWlLk6GJQsqaUBKTNV-1" vertex="1">
          <mxGeometry x="360" y="-200" width="240" height="160" as="geometry" />
        </mxCell>
        <mxCell id="KVD9vxbJ7NlNZJPhdQ88-0" value="" style="rounded=0;whiteSpace=wrap;html=1;" parent="WIyWlLk6GJQsqaUBKTNV-1" vertex="1">
          <mxGeometry x="-200" y="880" width="240" height="60" as="geometry" />
        </mxCell>
        <mxCell id="KVD9vxbJ7NlNZJPhdQ88-1" value="" style="rounded=0;whiteSpace=wrap;html=1;" parent="WIyWlLk6GJQsqaUBKTNV-1" vertex="1">
          <mxGeometry x="40" y="880" width="600" height="60" as="geometry" />
        </mxCell>
        <mxCell id="KVD9vxbJ7NlNZJPhdQ88-2" value="" style="rounded=0;whiteSpace=wrap;html=1;" parent="WIyWlLk6GJQsqaUBKTNV-1" vertex="1">
          <mxGeometry x="-150" y="940" width="190" height="370" as="geometry" />
        </mxCell>
        <mxCell id="KVD9vxbJ7NlNZJPhdQ88-3" value="" style="rounded=0;whiteSpace=wrap;html=1;" parent="WIyWlLk6GJQsqaUBKTNV-1" vertex="1">
          <mxGeometry x="40" y="940" width="600" height="370" as="geometry" />
        </mxCell>
        <mxCell id="KVD9vxbJ7NlNZJPhdQ88-4" value="Добавление новой компании" style="text;html=1;strokeColor=none;fillColor=none;align=left;verticalAlign=middle;whiteSpace=wrap;rounded=0;" parent="WIyWlLk6GJQsqaUBKTNV-1" vertex="1">
          <mxGeometry x="70" y="981" width="220" height="20" as="geometry" />
        </mxCell>
        <mxCell id="KVD9vxbJ7NlNZJPhdQ88-7" value="" style="rounded=1;whiteSpace=wrap;html=1;align=left;" parent="WIyWlLk6GJQsqaUBKTNV-1" vertex="1">
          <mxGeometry x="70" y="895" width="300" height="30" as="geometry" />
        </mxCell>
        <mxCell id="KVD9vxbJ7NlNZJPhdQ88-10" value="Поиск по компании или по услуге" style="text;html=1;strokeColor=none;fillColor=none;align=center;verticalAlign=middle;whiteSpace=wrap;rounded=0;" parent="WIyWlLk6GJQsqaUBKTNV-1" vertex="1">
          <mxGeometry x="80" y="901" width="270" height="20" as="geometry" />
        </mxCell>
        <mxCell id="KVD9vxbJ7NlNZJPhdQ88-11" value="Найти" style="text;html=1;strokeColor=none;fillColor=none;align=center;verticalAlign=middle;whiteSpace=wrap;rounded=0;" parent="WIyWlLk6GJQsqaUBKTNV-1" vertex="1">
          <mxGeometry x="370" y="900" width="90" height="20" as="geometry" />
        </mxCell>
        <mxCell id="KVD9vxbJ7NlNZJPhdQ88-14" value="Каталог организаций" style="text;html=1;strokeColor=none;fillColor=none;align=left;verticalAlign=middle;whiteSpace=wrap;rounded=0;fontStyle=1" parent="WIyWlLk6GJQsqaUBKTNV-1" vertex="1">
          <mxGeometry x="-180" y="900" width="220" height="20" as="geometry" />
        </mxCell>
        <mxCell id="E0zjhuXRXCEG0o1Y8dUk-0" value="" style="rounded=0;whiteSpace=wrap;html=1;" vertex="1" parent="WIyWlLk6GJQsqaUBKTNV-1">
          <mxGeometry x="-200" y="940" width="50" height="370" as="geometry" />
        </mxCell>
        <mxCell id="E0zjhuXRXCEG0o1Y8dUk-3" value="" style="rounded=1;whiteSpace=wrap;html=1;" vertex="1" parent="WIyWlLk6GJQsqaUBKTNV-1">
          <mxGeometry x="-195" y="950" width="40" height="40" as="geometry" />
        </mxCell>
        <mxCell id="E0zjhuXRXCEG0o1Y8dUk-4" value="" style="rounded=1;whiteSpace=wrap;html=1;" vertex="1" parent="WIyWlLk6GJQsqaUBKTNV-1">
          <mxGeometry x="-195" y="1000" width="40" height="40" as="geometry" />
        </mxCell>
        <mxCell id="E0zjhuXRXCEG0o1Y8dUk-5" value="" style="rounded=0;whiteSpace=wrap;html=1;" vertex="1" parent="WIyWlLk6GJQsqaUBKTNV-1">
          <mxGeometry x="-140" y="955" width="170" height="30" as="geometry" />
        </mxCell>
        <mxCell id="E0zjhuXRXCEG0o1Y8dUk-6" value="" style="rounded=0;whiteSpace=wrap;html=1;" vertex="1" parent="WIyWlLk6GJQsqaUBKTNV-1">
          <mxGeometry x="-140" y="1000" width="170" height="30" as="geometry" />
        </mxCell>
        <mxCell id="E0zjhuXRXCEG0o1Y8dUk-7" value="Добавить компанию" style="text;html=1;strokeColor=none;fillColor=none;align=left;verticalAlign=middle;whiteSpace=wrap;rounded=0;" vertex="1" parent="WIyWlLk6GJQsqaUBKTNV-1">
          <mxGeometry x="-130" y="961" width="220" height="20" as="geometry" />
        </mxCell>
        <mxCell id="E0zjhuXRXCEG0o1Y8dUk-8" value="+" style="text;html=1;strokeColor=none;fillColor=none;align=left;verticalAlign=middle;whiteSpace=wrap;rounded=0;" vertex="1" parent="WIyWlLk6GJQsqaUBKTNV-1">
          <mxGeometry x="-180" y="960" width="10" height="20" as="geometry" />
        </mxCell>
        <mxCell id="E0zjhuXRXCEG0o1Y8dUk-9" value="" style="rounded=0;whiteSpace=wrap;html=1;" vertex="1" parent="WIyWlLk6GJQsqaUBKTNV-1">
          <mxGeometry x="70" y="1007" width="190" height="30" as="geometry" />
        </mxCell>
        <mxCell id="E0zjhuXRXCEG0o1Y8dUk-10" value="Название компании (бренд)" style="text;html=1;strokeColor=none;fillColor=none;align=left;verticalAlign=middle;whiteSpace=wrap;rounded=0;" vertex="1" parent="WIyWlLk6GJQsqaUBKTNV-1">
          <mxGeometry x="80" y="1013" width="160" height="20" as="geometry" />
        </mxCell>
        <mxCell id="E0zjhuXRXCEG0o1Y8dUk-11" value="" style="rounded=0;whiteSpace=wrap;html=1;" vertex="1" parent="WIyWlLk6GJQsqaUBKTNV-1">
          <mxGeometry x="70" y="1046" width="190" height="30" as="geometry" />
        </mxCell>
        <mxCell id="E0zjhuXRXCEG0o1Y8dUk-12" value="Адрес сайта" style="text;html=1;strokeColor=none;fillColor=none;align=left;verticalAlign=middle;whiteSpace=wrap;rounded=0;" vertex="1" parent="WIyWlLk6GJQsqaUBKTNV-1">
          <mxGeometry x="80" y="1052" width="160" height="20" as="geometry" />
        </mxCell>
        <mxCell id="E0zjhuXRXCEG0o1Y8dUk-13" value="" style="rounded=0;whiteSpace=wrap;html=1;" vertex="1" parent="WIyWlLk6GJQsqaUBKTNV-1">
          <mxGeometry x="70" y="1086" width="190" height="30" as="geometry" />
        </mxCell>
        <mxCell id="E0zjhuXRXCEG0o1Y8dUk-14" value="Телефон" style="text;html=1;strokeColor=none;fillColor=none;align=left;verticalAlign=middle;whiteSpace=wrap;rounded=0;" vertex="1" parent="WIyWlLk6GJQsqaUBKTNV-1">
          <mxGeometry x="80" y="1092" width="160" height="20" as="geometry" />
        </mxCell>
        <mxCell id="E0zjhuXRXCEG0o1Y8dUk-15" value="" style="rounded=0;whiteSpace=wrap;html=1;" vertex="1" parent="WIyWlLk6GJQsqaUBKTNV-1">
          <mxGeometry x="70" y="1126" width="190" height="30" as="geometry" />
        </mxCell>
        <mxCell id="E0zjhuXRXCEG0o1Y8dUk-16" value="Почта" style="text;html=1;strokeColor=none;fillColor=none;align=left;verticalAlign=middle;whiteSpace=wrap;rounded=0;" vertex="1" parent="WIyWlLk6GJQsqaUBKTNV-1">
          <mxGeometry x="80" y="1132" width="160" height="20" as="geometry" />
        </mxCell>
        <mxCell id="E0zjhuXRXCEG0o1Y8dUk-17" value="" style="rounded=0;whiteSpace=wrap;html=1;" vertex="1" parent="WIyWlLk6GJQsqaUBKTNV-1">
          <mxGeometry x="70" y="1162" width="190" height="30" as="geometry" />
        </mxCell>
        <mxCell id="E0zjhuXRXCEG0o1Y8dUk-20" style="edgeStyle=orthogonalEdgeStyle;rounded=0;orthogonalLoop=1;jettySize=auto;html=1;exitX=1;exitY=0.5;exitDx=0;exitDy=0;entryX=0.947;entryY=0.544;entryDx=0;entryDy=0;entryPerimeter=0;" edge="1" parent="WIyWlLk6GJQsqaUBKTNV-1" source="E0zjhuXRXCEG0o1Y8dUk-18">
          <mxGeometry relative="1" as="geometry">
            <mxPoint x="249.9300000000003" y="1182.3200000000002" as="targetPoint" />
          </mxGeometry>
        </mxCell>
        <mxCell id="E0zjhuXRXCEG0o1Y8dUk-18" value="Юридический адрес" style="text;html=1;strokeColor=none;fillColor=none;align=left;verticalAlign=middle;whiteSpace=wrap;rounded=0;" vertex="1" parent="WIyWlLk6GJQsqaUBKTNV-1">
          <mxGeometry x="80" y="1172" width="160" height="20" as="geometry" />
        </mxCell>
        <mxCell id="E0zjhuXRXCEG0o1Y8dUk-19" value="Редактировать компанию" style="text;html=1;strokeColor=none;fillColor=none;align=left;verticalAlign=middle;whiteSpace=wrap;rounded=0;" vertex="1" parent="WIyWlLk6GJQsqaUBKTNV-1">
          <mxGeometry x="-130" y="1005" width="220" height="20" as="geometry" />
        </mxCell>
        <mxCell id="E0zjhuXRXCEG0o1Y8dUk-21" value="" style="rounded=0;whiteSpace=wrap;html=1;" vertex="1" parent="WIyWlLk6GJQsqaUBKTNV-1">
          <mxGeometry x="240" y="950" width="90" height="30" as="geometry" />
        </mxCell>
        <mxCell id="E0zjhuXRXCEG0o1Y8dUk-22" value="О компании" style="text;html=1;strokeColor=none;fillColor=none;align=left;verticalAlign=middle;whiteSpace=wrap;rounded=0;" vertex="1" parent="WIyWlLk6GJQsqaUBKTNV-1">
          <mxGeometry x="250" y="956" width="80" height="20" as="geometry" />
        </mxCell>
        <mxCell id="E0zjhuXRXCEG0o1Y8dUk-23" value="" style="rounded=0;whiteSpace=wrap;html=1;" vertex="1" parent="WIyWlLk6GJQsqaUBKTNV-1">
          <mxGeometry x="330" y="950" width="130" height="30" as="geometry" />
        </mxCell>
        <mxCell id="E0zjhuXRXCEG0o1Y8dUk-24" value="Вид деятельности" style="text;html=1;strokeColor=none;fillColor=none;align=left;verticalAlign=middle;whiteSpace=wrap;rounded=0;" vertex="1" parent="WIyWlLk6GJQsqaUBKTNV-1">
          <mxGeometry x="340" y="956" width="120" height="20" as="geometry" />
        </mxCell>
      </root>
    </mxGraphModel>
  </diagram>
</mxfile>
